<?xml version="1.0" standalone="no"?>
<!DOCTYPE svg PUBLIC "-//W3C//DTD SVG 20010904//EN"
 "http://www.w3.org/TR/2001/REC-SVG-20010904/DTD/svg10.dtd">
<svg version="1.0" xmlns="http://www.w3.org/2000/svg"
 width="300.000000pt" height="299.000000pt" viewBox="0 0 300.000000 299.000000"
 preserveAspectRatio="xMidYMid meet">
<metadata>
Created by potrace 1.10, written by Peter Selinger 2001-2011
</metadata>
<g transform="translate(0.000000,299.000000) scale(0.100000,-0.100000)"
fill="#000000" stroke="none">
<path d="M5 1495 c0 -825 1 -1161 2 -747 2 415 2 1090 0 1500 -1 411 -2 72 -2
-753z"/>
<path d="M2995 1495 c0 -825 1 -1161 2 -747 2 415 2 1090 0 1500 -1 411 -2 72
-2 -753z"/>
<path d="M1337 2685 c-172 -33 -327 -115 -455 -241 l-83 -82 -102 -6 c-56 -4
-127 -9 -158 -12 l-55 -6 87 -132 88 -133 -16 -59 c-25 -89 -22 -295 6 -399
30 -113 98 -247 170 -337 66 -83 187 -180 280 -227 57 -29 198 -75 261 -85 32
-6 42 -17 115 -131 l80 -124 67 133 67 133 48 12 c71 18 186 75 260 127 313
224 443 614 327 981 l-26 82 76 145 76 146 -58 -6 c-190 -18 -283 -19 -295 -5
-28 34 -148 116 -223 152 -44 21 -116 48 -160 60 -105 27 -274 33 -377 14z
m368 -45 c44 -11 112 -35 150 -54 76 -36 225 -138 210 -142 -6 -2 -230 -17
-500 -34 -269 -17 -539 -34 -600 -39 -60 -5 -112 -7 -114 -5 -7 6 48 61 115
114 113 91 265 158 407 181 80 12 243 2 332 -21z m585 -352 l-59 -113 -68 -3
-68 -3 -220 -434 c-121 -239 -222 -435 -225 -435 -3 0 -34 46 -70 102 l-65
102 153 301 c85 165 160 310 167 321 8 12 12 23 10 25 -2 3 -67 0 -144 -6 -78
-6 -141 -9 -141 -7 0 1 25 52 55 112 53 105 57 110 88 111 17 0 147 9 287 18
140 10 278 19 307 20 l51 1 -58 -112z m-690 66 c0 -7 -242 -490 -281 -561
l-29 -52 200 -307 c110 -168 200 -310 200 -315 0 -5 -32 -73 -70 -150 l-71
-141 -98 149 c-53 81 -211 321 -351 533 -139 212 -311 472 -382 579 -71 106
-127 195 -125 197 2 2 217 17 478 34 261 16 483 32 494 34 11 2 23 4 28 5 4 0
7 -2 7 -5z m710 -316 c32 -126 32 -297 1 -413 -57 -212 -200 -409 -376 -514
-56 -34 -216 -103 -223 -96 -2 1 9 26 23 55 l26 52 -35 54 c-20 29 -36 58 -36
63 0 5 38 82 84 172 46 90 145 284 220 432 l137 267 47 1 c26 1 58 5 72 9 14
4 28 8 31 9 3 1 16 -41 29 -91z m-603 -30 c-25 -46 -86 -166 -137 -267 l-91
-183 -60 92 -60 93 85 166 84 166 69 6 c37 3 87 6 111 7 l44 2 -45 -82z m-446
-847 c60 -91 107 -166 106 -167 -7 -7 -172 46 -232 75 -322 150 -519 507 -475
858 6 54 14 101 17 106 4 6 110 -153 584 -872z"/>
<path d="M1361 2539 c-77 -15 -163 -48 -236 -90 l-70 -40 95 6 c360 21 584 36
640 41 l65 6 -75 30 c-41 16 -104 36 -140 44 -71 15 -210 17 -279 3z m319 -42
l45 -14 -65 -6 c-36 -4 -146 -11 -245 -17 -99 -6 -193 -13 -210 -16 -41 -8
-22 8 35 31 117 45 331 56 440 22z"/>
<path d="M1099 2111 l-46 -6 59 -91 59 -92 50 94 c27 52 49 96 49 99 0 6 -111
4 -171 -4z"/>
<path d="M2077 1938 c-41 -79 -138 -268 -215 -421 l-141 -278 25 -37 c14 -20
27 -38 29 -40 2 -2 30 10 62 27 170 91 293 244 354 441 19 60 24 98 24 190 0
126 -26 260 -51 260 -7 0 -46 -64 -87 -142z m102 5 c24 -156 5 -278 -66 -422
-37 -77 -61 -110 -127 -176 -68 -69 -171 -145 -198 -145 -4 0 -13 10 -19 22
-10 19 11 66 187 414 109 216 202 389 206 386 3 -4 11 -39 17 -79z"/>
<path d="M774 1773 c19 -248 163 -464 391 -589 65 -35 69 -37 53 -14 -41 61
-386 585 -416 632 l-34 53 6 -82z m211 -303 c85 -129 153 -236 151 -237 -2 -2
-28 17 -59 41 -145 118 -224 250 -273 451 -5 20 -5 20 11 0 9 -11 86 -126 170
-255z"/>
<path d="M932 632 l-62 -3 -45 -97 c-25 -53 -43 -102 -41 -109 8 -20 122 -18
130 3 9 24 9 24 -34 24 -42 0 -44 2 -31 35 6 16 16 19 44 17 27 -3 38 1 46 17
16 30 14 32 -24 25 -38 -7 -41 -3 -25 27 8 14 21 19 55 19 35 0 45 4 50 21 4
11 5 21 3 22 -1 1 -31 1 -66 -1z"/>
<path d="M2430 632 l-65 -3 -43 -95 c-24 -52 -41 -101 -38 -109 8 -22 122 -21
130 1 9 24 9 24 -39 24 l-46 0 15 28 c13 25 19 28 47 24 24 -3 36 0 46 14 21
29 15 37 -22 30 -35 -7 -40 -2 -29 28 4 12 20 16 54 16 40 0 50 4 55 21 4 11
5 21 3 22 -1 1 -32 1 -68 -1z"/>
<path d="M480 524 c-27 -59 -50 -110 -50 -114 0 -3 13 -5 28 -2 22 3 32 12 41
38 11 29 17 34 44 34 45 0 75 24 98 78 27 63 21 72 -50 72 l-61 0 -50 -106z
m120 61 c0 -18 -33 -65 -45 -65 -18 0 -19 11 -3 45 9 21 48 37 48 20z"/>
<path d="M651 524 c-28 -59 -51 -110 -51 -114 0 -4 12 -5 26 -2 18 3 32 17 47
48 13 28 28 44 39 44 23 0 22 -2 -2 -50 -25 -49 -25 -47 8 -42 21 3 31 13 45
45 9 23 17 50 17 60 0 9 4 17 8 17 13 0 45 77 38 89 -4 6 -34 11 -66 11 l-58
0 -51 -106z m119 60 c0 -18 -24 -44 -40 -44 -17 0 -18 3 -8 25 9 21 48 37 48
19z"/>
<path d="M1039 617 c-33 -25 -63 -107 -40 -107 5 0 21 -4 36 -10 22 -8 24 -13
15 -30 -8 -15 -21 -20 -55 -20 -34 0 -47 -5 -55 -20 -10 -19 -8 -20 45 -20 70
0 90 10 116 61 24 48 19 69 -15 69 -14 0 -28 5 -31 10 -12 20 17 40 56 40 28
0 41 5 49 20 10 19 8 20 -47 20 -32 0 -65 -6 -74 -13z"/>
<path d="M1201 613 c-11 -10 -28 -35 -36 -56 -15 -37 -15 -37 10 -47 15 -6 31
-10 36 -10 10 0 12 -12 3 -34 -4 -12 -20 -16 -54 -16 -45 0 -60 -10 -60 -39 0
-8 121 2 136 12 17 10 56 96 49 107 -4 6 -17 10 -30 10 -28 0 -38 12 -29 34 4
11 19 16 50 16 33 0 46 5 54 20 10 19 8 20 -49 20 -41 0 -65 -5 -80 -17z"/>
<path d="M1317 522 c-26 -59 -47 -110 -47 -113 0 -3 11 -4 24 -2 19 4 34 26
74 114 l51 109 -27 0 c-25 0 -31 -10 -75 -108z"/>
<path d="M1393 520 l-51 -110 27 0 c25 0 32 8 60 68 l31 67 -5 -53 c-3 -29 -8
-59 -11 -67 -5 -12 3 -15 35 -15 34 0 43 4 50 23 7 17 62 135 89 190 2 4 -10
7 -26 7 -27 0 -32 -5 -52 -60 -12 -33 -27 -63 -33 -67 -9 -6 -8 8 10 100 5 26
4 27 -33 27 l-39 0 -52 -110z"/>
<path d="M1647 612 c-26 -29 -90 -171 -83 -187 4 -11 21 -15 66 -15 l60 0 29
59 c17 32 28 61 25 63 -2 3 -15 3 -28 1 -16 -3 -30 -18 -41 -44 -12 -25 -25
-39 -37 -39 -10 0 -18 2 -18 4 0 2 13 34 30 70 l29 66 45 0 c35 0 48 5 56 20
10 19 8 20 -53 20 -48 0 -68 -4 -80 -18z"/>
<path d="M1850 610 c-9 -18 -8 -20 15 -20 15 0 25 -3 23 -7 -2 -5 -20 -44 -41
-87 -20 -43 -37 -82 -37 -86 0 -4 12 -5 26 -2 22 4 34 20 67 93 34 74 45 89
64 89 12 0 27 9 33 20 10 19 8 20 -64 20 -65 0 -77 -3 -86 -20z"/>
<path d="M1982 518 c-29 -61 -51 -112 -50 -114 11 -10 59 12 64 30 4 11 26 60
50 109 l43 87 -28 0 c-25 0 -31 -9 -79 -112z"/>
<path d="M2101 608 c-5 -13 -28 -63 -50 -111 -23 -49 -41 -90 -41 -92 0 -1 11
0 24 2 19 4 32 22 60 85 20 45 39 78 42 75 3 -3 -4 -36 -15 -75 -26 -87 -26
-90 3 -85 18 4 40 29 77 84 28 44 54 77 57 75 3 -3 -12 -37 -32 -76 -20 -39
-36 -75 -36 -79 0 -5 11 -6 25 -2 21 5 35 27 75 114 l49 107 -42 0 c-42 0 -42
0 -91 -80 -27 -44 -51 -79 -53 -76 -2 2 5 35 16 74 12 38 21 72 21 76 0 3 -18
6 -40 6 -33 0 -42 -4 -49 -22z"/>
</g>
</svg>
